<mxfile host="app.diagrams.net" modified="2022-09-08T23:08:05.107Z" agent="5.0 (X11)" etag="Z1_lNUcw71bV7tQ0dxml" version="20.2.3" type="github">
  <diagram id="t5bP6VZg-CHLaKBq3xeW" name="Page-1">
    <mxGraphModel dx="782" dy="1147" grid="1" gridSize="10" guides="1" tooltips="1" connect="1" arrows="1" fold="1" page="1" pageScale="1" pageWidth="850" pageHeight="1100" math="0" shadow="0">
      <root>
        <mxCell id="0" />
        <mxCell id="1" parent="0" />
        <mxCell id="C0oqmWvS3XGpqQxx-sJI-1" value="DRAM.py" style="ellipse;whiteSpace=wrap;html=1;aspect=fixed;" vertex="1" parent="1">
          <mxGeometry x="379" y="550" width="80" height="80" as="geometry" />
        </mxCell>
      </root>
    </mxGraphModel>
  </diagram>
</mxfile>
